<?xml version="1.0" encoding="UTF-8" standalone="no"?>
<!-- Created with Inkscape (http://www.inkscape.org/) -->

<svg
   xmlns:dc="http://purl.org/dc/elements/1.1/"
   xmlns:cc="http://creativecommons.org/ns#"
   xmlns:rdf="http://www.w3.org/1999/02/22-rdf-syntax-ns#"
   xmlns:svg="http://www.w3.org/2000/svg"
   xmlns="http://www.w3.org/2000/svg"
   xmlns:xlink="http://www.w3.org/1999/xlink"
   xmlns:sodipodi="http://sodipodi.sourceforge.net/DTD/sodipodi-0.dtd"
   xmlns:inkscape="http://www.inkscape.org/namespaces/inkscape"
   width="32"
   height="32"
   id="svg2424"
   sodipodi:version="0.32"
   inkscape:version="0.91 r13725"
   version="1.0"
   sodipodi:docname="arch-updates-symbolic.svg"
   inkscape:output_extension="org.inkscape.output.svg.inkscape"
   inkscape:export-filename="/home/thayer/archlinux-logo-contest/archer-full-detail.png"
   inkscape:export-xdpi="90"
   inkscape:export-ydpi="90">
  <defs
     id="defs2426">
    <linearGradient
       gradientUnits="userSpaceOnUse"
       id="path1082_2_"
       y2="129.3468"
       x2="112.49853"
       y1="6.1372099"
       x1="112.49854"
       gradientTransform="translate(287,-83)">
      <stop
         id="stop193"
         offset="0"
         style="stop-color:#ffffff;stop-opacity:0" />
      <stop
         id="stop195"
         offset="1"
         style="stop-color:#ffffff;stop-opacity:0.27450982;" />
      <midPointStop
         id="midPointStop197"
         style="stop-color:#FFFFFF"
         offset="0" />
      <midPointStop
         id="midPointStop199"
         style="stop-color:#FFFFFF"
         offset="0.5" />
      <midPointStop
         id="midPointStop201"
         style="stop-color:#000000"
         offset="1" />
    </linearGradient>
    <linearGradient
       id="linearGradient3388">
      <stop
         style="stop-color:#000000;stop-opacity:0;"
         offset="0"
         id="stop3390" />
      <stop
         style="stop-color:#000000;stop-opacity:0.37113401;"
         offset="1"
         id="stop3392" />
    </linearGradient>
    <linearGradient
       inkscape:collect="always"
       id="linearGradient4346">
      <stop
         style="stop-color:#00bdec;stop-opacity:1"
         offset="0"
         id="stop4348" />
      <stop
         style="stop-color:#40bfde;stop-opacity:1"
         offset="1"
         id="stop4350" />
    </linearGradient>
    <linearGradient
       inkscape:collect="always"
       xlink:href="#linearGradient4346"
       id="linearGradient4352"
       x1="400.6142"
       y1="634.15063"
       x2="616.48553"
       y2="666.97791"
       gradientUnits="userSpaceOnUse" />
    <linearGradient
       inkscape:collect="always"
       id="linearGradient5323">
      <stop
         style="stop-color:#6e6e6e;stop-opacity:1"
         offset="0"
         id="stop5325" />
      <stop
         style="stop-color:#4d4d4d;stop-opacity:1"
         offset="1"
         id="stop5327" />
    </linearGradient>
    <linearGradient
       inkscape:collect="always"
       xlink:href="#linearGradient5323"
       id="linearGradient5329"
       x1="291.83591"
       y1="238.08237"
       x2="650.81366"
       y2="348.96875"
       gradientUnits="userSpaceOnUse" />
    <linearGradient
       inkscape:collect="always"
       xlink:href="#path1082_2_"
       id="linearGradient2216"
       gradientUnits="userSpaceOnUse"
       gradientTransform="matrix(-0.3937741,0,0,0.393752,978.34967,416.9815)"
       x1="541.33502"
       y1="104.50665"
       x2="606.91248"
       y2="303.14029" />
    <linearGradient
       gradientUnits="userSpaceOnUse"
       y2="666.97791"
       x2="616.48553"
       y1="634.15063"
       x1="400.6142"
       id="linearGradient4175"
       xlink:href="#linearGradient4346"
       inkscape:collect="always" />
    <linearGradient
       gradientUnits="userSpaceOnUse"
       y2="348.96875"
       x2="650.81366"
       y1="238.08237"
       x1="291.83591"
       id="linearGradient4177"
       xlink:href="#linearGradient5323"
       inkscape:collect="always" />
    <linearGradient
       y2="303.14029"
       x2="606.91248"
       y1="104.50665"
       x1="541.33502"
       gradientTransform="matrix(-0.3937741,0,0,0.393752,978.34967,416.9815)"
       gradientUnits="userSpaceOnUse"
       id="linearGradient4179"
       xlink:href="#path1082_2_"
       inkscape:collect="always" />
  </defs>
  <sodipodi:namedview
     id="base"
     pagecolor="#ffffff"
     bordercolor="#666666"
     borderopacity="1.0"
     gridtolerance="10000"
     guidetolerance="10"
     objecttolerance="10"
     inkscape:pageopacity="0.0"
     inkscape:pageshadow="2"
     inkscape:zoom="16.820651"
     inkscape:cx="21.480215"
     inkscape:cy="8.55839"
     inkscape:document-units="px"
     inkscape:current-layer="g2210"
     inkscape:window-width="1920"
     inkscape:window-height="1016"
     inkscape:window-x="0"
     inkscape:window-y="27"
     showgrid="false"
     inkscape:window-maximized="1" />
  <metadata
     id="metadata2429">
    <rdf:RDF>
      <cc:Work
         rdf:about="">
        <dc:format>image/svg+xml</dc:format>
        <dc:type
           rdf:resource="http://purl.org/dc/dcmitype/StillImage" />
        <dc:title />
      </cc:Work>
    </rdf:RDF>
  </metadata>
  <g
     inkscape:label="Layer 1"
     inkscape:groupmode="layer"
     id="layer1"
     transform="translate(-309.51781,-259.60123)">
    <g
       id="g2424"
       transform="matrix(1.3473684,0,0,1.3473684,-632.88236,-513.34366)">
      <g
         id="g2210"
         transform="matrix(0.125,0,0,0.125,615.71887,519.21715)">
        <path
           style="opacity:1;fill:#bebebe;fill-opacity:1;fill-rule:evenodd;stroke:none;stroke-width:1;stroke-linecap:round;stroke-linejoin:round;stroke-miterlimit:10;stroke-dasharray:none;stroke-opacity:1"
           d="M 16 0 C 14.575648 3.4921313 13.874893 5.5315986 12.289062 8.9199219 C 13.261377 9.9505728 14.292283 11.394438 16.230469 12.75 C 14.559075 12.634776 12.56221 11.364015 11.5 10.470703 C 9.4704421 14.705691 6.4527056 20.405799 0 32 C 5.0703376 29.072805 9.0009506 27.26729 12.664062 26.578125 C 12.507343 25.90258 12.423623 25.168434 12.429688 24.40625 L 12.433594 24.246094 C 12.500123 21.559738 13.669197 19.392875 15.203125 18.816406 C 15.558287 18.041461 16.021369 17.324607 16.617188 16.703125 C 16.618758 16.654244 16.612419 16.605529 16.615234 16.556641 C 16.662138 16.559086 16.708961 16.562003 16.755859 16.564453 C 16.846922 16.474872 16.928256 16.377987 17.025391 16.292969 C 18.49904 14.880969 20.539646 14.517243 22.46875 14.130859 C 18.988937 7.3165527 18.109348 4.9500368 16 0 z M 30.029297 28.59375 C 29.824553 28.859083 29.609666 29.116255 29.373047 29.353516 C 29.107719 29.619563 28.823896 29.868519 28.523438 30.09375 C 29.630308 30.671386 30.771367 31.290688 32 32 C 31.293923 30.700061 30.652006 29.650934 30.029297 28.59375 z "
           transform="matrix(5.9375001,0,0,5.9375001,669.75014,435.62316)"
           id="path2518" />
        <path
           style="display:inline;fill:#bebebe;fill-opacity:1;fill-rule:evenodd;stroke:none;enable-background:new"
           sodipodi:nodetypes="ccccccccccccccccccccccccccccccccccc"
           id="path4155"
           d="m 807.82744,524.69526 -21.04705,4.74232 -12.72245,8.61705 -8.61698,12.72241 -4.74242,21.04712 4.74242,21.04713 8.61698,12.7224 12.72245,8.61706 21.04705,4.74232 21.04714,-4.74232 12.72249,-8.61706 8.61698,-12.7224 4.74242,-21.04713 -4.74242,-21.04712 -8.61698,-12.72241 -12.72249,-8.61705 z m 0,16.90441 6.17544,5.90691 17.18374,17.18374 c 1.92125,1.94151 2.84664,4.82065 2.41643,7.5179 l 0,7.24938 -7.51787,0 -9.66587,0.0343 0,23.32675 -17.18374,0 0,-23.32675 -8.59187,-0.0343 -1.34243,0 -7.24944,0 0,-6.7124 c -0.0145,-0.26806 -0.0145,-0.53698 0,-0.80505 -0.3444,-2.61374 0.57231,-5.36512 2.41658,-7.2494 l 17.18374,-17.18373 z"
           inkscape:connector-curvature="0" />
      </g>
    </g>
  </g>
</svg>
