<svg width="32" height="32" viewBox="0 0 32 32" fill="none" xmlns="http://www.w3.org/2000/svg">
<g clip-path="url(#clip0_112_98)">
<mask id="mask0_112_98" style="mask-type:alpha" maskUnits="userSpaceOnUse" x="-1" y="0" width="32" height="32">
<path d="M0 0H31V16H30L29.5 25L31 32H0L-0.5 20H25.5H27L28.5 19V12H0V0Z" fill="#D9D9D9"/>
</mask>
<g mask="url(#mask0_112_98)">
<path d="M11.7665 32L28 16L20.9951 9.10938L18.7555 11.3125L23.5048 16L7.25549 32H11.7665Z" fill="#BEBEBE"/>
<path d="M21.2334 0L5 16L11.9731 22.8594H12.0048L14.2286 20.6719L9.49517 16L25.6968 0H21.2334Z" fill="#BEBEBE"/>
</g>
</g>
<path d="M7.36221 18.9976C9.09439 18.9976 10.4986 17.6544 10.4986 15.9976C10.4986 14.3407 9.09439 12.9976 7.36221 12.9976C5.63003 12.9976 4.22583 14.3407 4.22583 15.9976C4.22583 17.6544 5.63003 18.9976 7.36221 18.9976Z" fill="#BEBEBE"/>
<path d="M15.7259 18.9976C17.458 18.9976 18.8622 17.6544 18.8622 15.9976C18.8622 14.3407 17.458 12.9976 15.7259 12.9976C13.9937 12.9976 12.5895 14.3407 12.5895 15.9976C12.5895 17.6544 13.9937 18.9976 15.7259 18.9976Z" fill="#BEBEBE"/>
<path d="M24.0894 18.9976C25.8216 18.9976 27.2258 17.6544 27.2258 15.9976C27.2258 14.3407 25.8216 12.9976 24.0894 12.9976C22.3572 12.9976 20.953 14.3407 20.953 15.9976C20.953 17.6544 22.3572 18.9976 24.0894 18.9976Z" fill="#BEBEBE"/>
<defs>
<clipPath id="clip0_112_98">
<rect width="23" height="32" fill="white" transform="translate(5)"/>
</clipPath>
</defs>
</svg>
