<svg width="32" height="32" viewBox="0 0 32 32" fill="none" xmlns="http://www.w3.org/2000/svg">
<g clip-path="url(#clip0_112_7)">
<g clip-path="url(#clip1_112_7)">
<mask id="mask0_112_7" style="mask-type:alpha" maskUnits="userSpaceOnUse" x="-1" y="-1" width="50" height="50">
<circle cx="24" cy="24" r="16.5" stroke="black" stroke-width="17"/>
</mask>
<g mask="url(#mask0_112_7)">
<path d="M10.7665 32L27 16L19.9951 9.10938L17.7555 11.3125L22.5048 16L6.25549 32H10.7665Z" fill="#BEBEBE"/>
<path d="M20.2334 0L4 16L10.9731 22.8594H11.0048L13.2286 20.6719L8.49517 16L24.6968 0H20.2334Z" fill="#BEBEBE"/>
</g>
</g>
<path d="M24.002 15.998C22.9512 15.9979 21.9108 16.2047 20.94 16.6066C19.9692 17.0085 19.0871 17.5978 18.344 18.3407C17.6009 19.0835 17.0115 19.9655 16.6093 20.9362C16.2071 21.9069 16.0001 22.9473 16 23.998C15.9998 25.0489 16.2067 26.0896 16.6087 27.0605C17.0108 28.0314 17.6002 28.9136 18.3433 29.6567C19.0864 30.3998 19.9686 30.9892 20.9395 31.3913C21.9104 31.7933 22.9511 32.0002 24.002 32C25.0527 31.9999 26.0931 31.7929 27.0638 31.3907C28.0345 30.9885 28.9165 30.3991 29.6593 29.656C30.4022 28.9129 30.9915 28.0308 31.3934 27.06C31.7954 26.0892 32.0021 25.0488 32.002 23.998C32.0018 21.8764 31.1589 19.8416 29.6586 18.3414C28.1584 16.8411 26.1236 15.9982 24.002 15.998V15.998ZM23.998 17.1152L25.3867 18.4434L29.252 22.3086C29.684 22.7452 29.8917 23.3915 29.7949 23.998V25.6289H28.1035L25.9297 25.6367V30.8828H22.0664V25.6367L20.1328 25.6289H19.832H18.2012V24.1191C18.1979 24.0589 18.1979 23.9978 18.2012 23.9375C18.1237 23.3497 18.3294 22.7323 18.7441 22.3086L22.6094 18.4434L23.998 17.1152Z" fill="#BEBEBE"/>
</g>
<defs>
<clipPath id="clip0_112_7">
<rect width="32" height="32" fill="white"/>
</clipPath>
<clipPath id="clip1_112_7">
<rect width="23" height="32" fill="white" transform="translate(4)"/>
</clipPath>
</defs>
</svg>
